<?xml version="1.0"?>
 <svg 
      className={className}
      baseProfile="tiny" 
      fill="#6f9c76" 
      stroke="#ffffff" 
      strokeLinecap="round" 
      strokeLinejoin="round" 
      strokeWidth=".5" 
      version="1.2" 
      viewBox="0 0 1000 1000" 
      xmlns="http://www.w3.org/2000/svg"
    >
      <g id="features">
        <path id="gangwon" name="강원" d="M724.4 389.1l-1.3 0-4.5-1.1-4.4 2-9.4-3.5 1.5-4-0.4-3.8-1.2-4.2-0.4-4.7 1.9-4.5 1.4-4.3-1.1-1.2-1.1-1.1 0.5-3.9-9.9-0.7-2.9-1.7-3.1-1.3-1.3-3.1-1-3.6-4.5-2.2-2.8-4.2-0.6-5.5 1-4.2 2.3-1.7 2.6-1 3.9 1.6 3.2-2.4-1.3-3.9-4.2-2.6-4.7-1.1-3.6 2-3.6 0.9-5-2.3-5.3-0.9-1.8 0.7-1.5-0.2-1.1-1.5-1.7-0.7-3.8 3-4.1 1.6-0.3-3 0.3-2.9-2.3-1.2-2.6-0.6-1.9-3.4-3.7-0.3-3.7 1.8-2.5 3 0.9 4.2-0.4 3.9-0.8 3.6-3.5-0.3-4-0.9-3.4-1.4-3.5-1.9-2.7-1.7-2.7-1.2-3.5-0.4-3.5-0.7-3.6-2.3-3.2-2.5-3.2 0.1-3.3 1-2.9 0.5-2.5 0.2-1-2.2-2.7-2.8 0.3-2.5-1.4-1.4-6.4 0.7-4.1 1.4-1.3 0.6-1.2-0.1-1.9-1-1.5-1.7 2.3-3.6 3.9-2.8 1.6-3.6-2.4-0.7-7.8-1.2-7.5-2.7-3.2 2.4-2.6 1.4-3.3-0.7-2.7 2.1-4.5 2.5-4.5 1.1-1.7-2.4 0-3.6-5.1-5.5-6.9 2.4-2.6 3.1 0.8 8.3-2.8 1.9-0.9 1.1-1.1 0.9-1.1-0.6-1.2-0.7-4.1-0.3-4.1 1 1.1-8.2-14.4 2-14.3 3.9 7.3-13.6 6.1-14.8 8.3-17.9 1.1-3.8-0.8-3.9 1.8-3.1 2.5-3 2.7-1.1 1.4-3.1-1.6-2.6-2-1.7-3.2-0.4-3.3-1.3-4.6-0.6-7.6-4.2-3.4-1.4-3.4-2.2-3.8-0.6-3.6 1.1-3-2.5 0.2-2.8 1.4-2.9 0.6-3.4 0-3.4-3.5 1.1-1.7-2.1 4-4.6-0.7-3.1-1.1-3.1 0.8-2.3 0-2.8-0.3-2.7 6.9-5.1 2.8-0.9 1.5-2.4 0.7-6.9-3.2-5-2.6-0.5-2.5-1.2-1.9-5-3-0.2-3.2 0.2-3.5-2.5-1.7-4.6-0.7-8.1-1.3-4.1-0.9-0.7-1 0.1-0.8 0.7-0.9 0.2-2.3-1.7-5.6 2-5.2-1.2-2.1-1.3-2.2-2 0-3.2 1-3.1 0.8-1.1 0.5-1.2-0.9-0.7-1.1-0.3-1.1 0.2-1 0.8-1.8 2.3-2 2.1-3 0.5-2.8-1.9-0.5-1.7-0.2-1.7-1-0.6-1 1.1-0.3 1.8-0.1 5.7-1.7 2.7-5-2.3-4.6-4.2-1.6-1.6-1.6 0.2-1.5-2.2-1-2.8-1.2-1.5-1.5-1.2-1.1-2.7-2-1.3-4.8-3.1-2.7-1.3 0.8-1 7.4-6.1 8.7-5.4 2.5-1.1 5.5-2.2 1-0.4 6.1-0.7 2.7-0.3 4.3 0.5 8.4-0.8 1.5-0.1 6.8-0.6 12.9 3.9 3.6-0.3 0.5-0.1 0.4-0.1 7.5-2.3 15.7-1.3 1.6-0.2 8.9-0.8 1.1 0.8 1.7 2.5 1.7 1.7 1.9 0.5 8.9-1.9 14.2 0.8 9.3-0.7 0.5-0.2 7.5-2.7 1.3-0.4 1.7-1.1 6.9-4.6 7.3-7.5 3.1-4.5 2.6-4.8 1.8-5.4 0.6-6.1-1.2-6-0.3-3 0.9-2.2 3.7-3 7.5-3.9 0.1 0 4.1 8 6.3 12.5 1.3 5.5 3.2 8.3 12 23.7 9.3 24.9 1.5 2.7 4.9 6 1.9 5.1 22.5 32.3 8.8 12.8 10.5 11.7 1.5 1.2 7.1 8.3 0.3 3.5 0 4.2 0.9 3.5 4.8 2.7 1.4 2.9 3.9 12.9 1.8 3 2.1 1.3 1.8 1.8 6.2 12.1 3.7 4.7 1.3 2.6 0.4 2.7 1 2.6 6.5 7.2 2.1 5.9 1.9 12.9 2.5 7.1 7 9.7 0.5 2-0.8 2-1.3 1.9-0.7 1.8-0.1 1.7 1 5.3 1.2 15.1 1.2 7 4.5 14.3 0.4 7-1.4 6.4-3.1 5.9-2.5 6.9z"></path>
        <path id="gyeonggi" name="경기" d="M394.1 117.9l4.8 3.1 2 1.3 1.1 2.7 1.5 1.2 1.2 1.5 1 2.8 1.5 2.2 1.6-0.2 1.6 1.6 4.6 4.2 5 2.3 1.7-2.7 0.1-5.7 0.3-1.8 1-1.1 1 0.6 0.2 1.7 0.5 1.7 2.8 1.9 3-0.5 2-2.1 1.8-2.3 1-0.8 1.1-0.2 1.1 0.3 0.9 0.7-0.5 1.2-0.8 1.1-1 3.1 0 3.2 2.2 2 2.1 1.3 5.2 1.2 5.6-2 2.3 1.7 0.9-0.2 0.8-0.7 1-0.1 0.9 0.7 1.3 4.1 0.7 8.1 1.7 4.6 3.5 2.5 3.2-0.2 3 0.2 1.9 5 2.5 1.2 2.6 0.5 3.2 5-0.7 6.9-1.5 2.4-2.8 0.9-6.9 5.1 0.3 2.7 0 2.8-0.8 2.3 1.1 3.1 0.7 3.1-4 4.6 1.7 2.1 3.5-1.1 0 3.4-0.6 3.4-1.4 2.9-0.2 2.8 3 2.5 3.6-1.1 3.8 0.6 3.4 2.2 3.4 1.4 7.6 4.2 4.6 0.6 3.3 1.3 3.2 0.4 2 1.7 1.6 2.6-1.4 3.1-2.7 1.1-2.5 3-1.8 3.1 0.8 3.9-1.1 3.8-8.3 17.9-6.1 14.8-7.3 13.6-1 1.8-1.1 1.7-1 0.7-1.1 0.9-0.8 1.3-0.6 1.4-6.5 12.1-3.4 2.4-0.8-1-2.6-0.6-2.1 2.2-1.2 2.9-1.6 2.1-3.5 1.5-2.2 2.4-1.2 5-4.5 1.5-5.8 2.8-6.1 1.8-6.4-0.9-5.2-4.4-5.9-2.7-11.2 4.8-5.3 0-6.4-1.3 1.7-1.3 2.1-1 1.4-1.6 1-4.1-0.3-0.8-1.3-1.3-0.2-0.4 0.7-0.6 0.8-0.1 0.7 0 1.8-1 1.2-0.2 0.9-0.6 0.4-2-8.1 2.3-1.2 1.7 0.4 5.3-1 1.2-3.2 1-4.4-0.6-5.4-3.1-4.8-4.8-1.8-4.5 8.1-0.9 0-1.1-0.6-0.2-1.2-1 1.5-0.2 1.4 0.1 1.4 0.4 1.1 0.9-0.5-3.2-1.9-2.9-1.3-3.3 0.9-4.5-1.5-0.7-1.2 1.6-0.7 2.7-0.2 2.7-0.7 3-1.3 0.7-1.2-1.3-2.6 0.5-2.6 0.7-6.3-1.9 0-1.9-0.5-1.7 0.5-2.3-0.3-2.9 1.6-2.9 1.8-2.5 2.2-1.1 2.3-0.9 3.4 0 3.7-1 0.8-1.1 0.2-3.2-0.9-0.6-1.9 1-2.8 2.5-1.7-0.4-1.3-0.8-0.7-1.3 0-2.1-3.2 1.7-2.6 1.8-4.9 5.3-1.2 1-1.6 0.5-1.4 0-0.9-0.9 0-1.5 0.9-1.6 2-2.8-4 0.9-1.3-0.4-0.4-2.3 0.7-1.7 1.7-1 1.9-0.6 1.4-0.8 1.6-2.3-0.4-0.5-3.7 0.5-1.2-0.8-0.9-1.8-0.9-2.3-1.1-2.1 0.6-0.2 0.4-0.3 0.8-0.8 1 0.8 1.5-0.1 2.7-0.7 2.1 0.6 1.8 1.1 1.8 0.6 2.1-1-0.2 1.9 0.2 1.8 0.6 1.5 1.3 0.6 1.5-0.6 0.6-1.6 0.7-3.6 2.3-3.4 1.9 0.2 2.1 1.3 3-0.4-0.7-1.4-0.8-1.1-1.1-0.7-1.2-0.3-1.9 0-0.9-1.3-2-0.3-1.6 0.5-1.6-0.1-2.6-0.5-4.3-1.4-5.9-4.4-0.3-2 2.7-3.8 1.7-1.8 4.3-1.3 1-0.7 1.8-1.4 1.9-3.7 1.3-4.2-1.3-2.1-2.2-1.5-1.4-3.3 0-4-8-7.7-6.9 0.2-6.2 0.2-0.7-1.5-1-2.5-1.2-2-1.4-2.4-1.6-1.5 0-2.3-0.6-3.5-1.4-5.3-2-14.1 0.5-2.4 1.8-0.3 7.5 2.7 2.4-0.5 2-1 1.7-0.3 1.9 1.2 0.6 2 0.3 3.2-0.2 3.2-0.7 2.2-0.1 4.1 4.2 3.5 5.2 2.2 3.3 0.2-2.5-2.7-7.9-5.6 2.3-6.1 0.7-3.6-0.6-2.6-1.3-2.7-0.1-1.4-0.1-2 0.6-3.5 1.4-2.7-1-1.3-1.3 0.2-0.6 0.4 0-0.4 1.5-3.9 0-0.3 0.1-1.3 0.1-1.1 0-0.6-0.1-1 0-1.5 0-1 0.3-0.8 0.3-0.8 0.1-0.6-0.3-1.1-0.4-1.9-1-2.8 1.8-0.2 3.5-1.3 1.1-0.9 0.6-0.2 0.6-0.3 0.3-0.1 1.8-0.2 2 0.2 1.2-0.2 0.8-0.8 1.3-2 1.8-2.2 1.8-1.8 0.5-0.5 2.3-2.1 1.3-1.6 0.8-1.2 0.1-0.2 0.9-1.8 0.5-2.1 0.1-1.2 0.1-0.4 0.5-1.6 0.3-0.7 0.7-1.3 0.3-0.5 1.4-1.3 1-0.6 2.5-1.9 2.2-1.9 0.5-0.4 0.2-0.1 1.3-0.7 2-1.1 0.4-0.2 0.6-0.7 0-0.4 0-0.2-0.2-0.4-1.1-1.6 0-0.7 0.4-3.2 0.3-0.9 0.3-1.1 0.5-0.6 0.4-0.7 0.2-0.1 0.8-0.3 0.3-0.5 0.1-0.1z m17.6 112.5l1.3-4.8-0.1-4.2-1.4-3.8-0.9-5.5-2.4-4-4.8-0.4-4.3 1-2.7 2.9-1.9 4.1-3.1 4-6.1 0.6-0.8 2.7-0.2 2.9-2.9 1.8-3.2 1.1-4.3-2.7-3.8-0.2-2.1 4.3 3.2 4 2.7 3.8 0.7 4.9 2.7 1.8 4 1.2 4 5.2 5.8 0.2 2.4-0.4 2.4-1.4 3.4-1 3.4-0.8 1.5 3.6 4-2 3.9-0.9 3.5-2.1 1.3-2.3 2.3-3.1-1.1-1.3 0-3 2-1.4 1.9-1 0.4-2.5-1-2.5-2.8 0-3.2 1.2-3.7 0z m-60.5-47.7l-0.3 0.2 0-0.6 0.3 0.4z m-50.8 4.6l2.7-0.1 2.5 0.4 1.3 1.4-0.9 3.1-2.4 2.1-3 0.2-5.7-1.3-1.2 0.5-1.5 0.8-1.4 0.1-0.5-1.9 0.3-0.6 1.6-4.7 1.6-1.6 1.9-0.5 2.2 0.5 2.5 1.6z m8.4 18.4l1.7 1.3 1.3 1.5 0.2 1.6-1.4 1.9-2.7 0.1-9.2-7.1 1.1-1.1 0.6-1.4 0.8-3.2 0.4-0.8 0.7-0.9 0.7-0.7 0.8-0.2 0.5 0.3 0.3 0.6 0.2 0.7 0.5 3.1 0.1 0.6 0.7 1.1 0.8 1 1.9 1.6z m20.5 16.8l-1.1 0.1-0.8-0.4-1.4-1.5-1-0.6-0.8 0.2-0.5 0.6-0.5 0.3-7.2 0.4-2.6-1.2-2.8-3.7 4.2-1.1 1-0.7 1.1-1.8-0.1-0.8-0.8-0.6-0.7-0.9-4.8-9.2-0.3-1.4 0.5-1.9-0.2-8.1 0.6-1.8 1.3-0.5 3.2-3.8 2.5-0.6 2.1 1.6 2.1 2.4 2 1.9 4.4 2.2 1.7 1.7 0.7 2.8-0.1 1.4-0.7 2.3-0.2 1 0.3 1.2 1.3 2.3 0.3 1.2 0.4 6.2-0.4 1.4 0.7 1 0.8 1.8 0.4 0.8-1.8 1-1.5 3.6-1.3 1.2z m-240.7-65.8l1.5 1.8-0.2 2.6-1.9 1.3-2.6-1.5-3.5 0.3-0.7 0.3 0 1.8 1.4 0.7 1.6 0.3 0.7 0.6-2.8 2.2-5.5-0.8-4.1-3.5 1.4-6.1 3.4 1.2 7.5-2.6 3.8 1.4z m185.4 128.8l-1 0.5-0.6-0.2 0-0.6 0.5-2.8 0.7-2.3 1-1.4 1.1 0.8 1 1.6 0.9 0.8 3.4 1.8 1 1.1-0.6 1-1.7 1.8-1.2 0.5-1.6 0.3-1.3-0.6-0.9-1.6-0.4-0.9-0.3 0.2z m52-8.7l1.4 0.9 0.6 2.1-0.6 0.7-1.5 0.5-0.5 1.1-0.1 1-1.2 1.4-1.6 0.4-1-0.8-1.1 0.1-0.9-0.5-0.3-2.2 0.2-2.2 1.2-1.5 2.3-1.3 3.1 0.3z m17.7 4l0.3 0.8 0.3 1.5-0.7 1.5-6.9 5.6-3.2 0.4 0.1-0.9 1.4-2 0.2-1.2-0.6-0.9 1.8-2.1 0-2-0.7-2.5-1-1.8-1-1.1 0.3-0.3 2.3 1 1.9-1.6 0.4 0.1-0.4 1.5 0.6 1.3 1.6 0.9 2.5 1.1 0.8 0.7z m-125.5-72.4l1.4 0.2 1 1-0.4 1.8-1.3 1.3-0.8 0.4-0.4-0.9-0.8-2.2 0.2-1.4 1.1-0.2z m-131.8-28.8l1.1 0.6 0.2 1.1-0.6 1.5-0.5 1.8-0.5 1.5-1 0.5-1.1-0.1-0.9 0.3-0.7 0.8-0.3 0.1 0-0.5 0-0.2-0.4-0.8-1.1-1.4 0.4-1.4 2.3-1.8 1.4-1.5 0.7-0.6 1 0.1z"></path>
        <path id="chungnam" name="충남" d="M315.4 415.8l1 3.1 1.8 2.8 0.8 2.6-1.3-0.6-6 0.4-2-0.3-0.3-2.6 0.6-0.8 1.1-1 0.5-1.5-3.2 2-1.5-0.7 0.4-2.5 2.4-3.4-0.9-1-1.8 2.2-0.7-1.6-1.4 0.8 0.7-4-0.5-6.2-0.6-3.8-1.4-4.7 1.2-1.5 2.4-2.2 2.6-0.9 1.8 2.9 0.2 1-0.6 1.2-1 0.9 0.1 1.1 2.3 5.2 0.4 1.7-0.6 1.3 0.7 1.2 1.5 1 1.2 2.1-2.8 0 0 1 0.9 0.2 1.9 1.1-0.2 1-0.1 0.9 0.4 1.6z m75.4-75.5l6.4 1.3 5.3 0 11.2-4.8 5.9 2.7 5.2 4.4 6.4 0.9 1.1 2.5 1.6 1.7 1.8 1 2.3 4.7 1.8 1.3-0.1 3.4 1.1 1.1 0.9 1.7 0.3 1.9-0.3 1.9-0.7 1.8-0.4 1.8-0.2 1.5-0.7 1.3-1.2 0.3-1.3-0.2-1.2 1.3-2.8 4.9-3.8 5.5-19.3-7.7-3.1 8.7 0.4 25.6-2.1 2-1.2 3.5 12.3 2.4 9.3-2.5 7.2 11.4 2.5 4.8 0.7 12.2 2.8 9.1 6.7-1.7 5.9-4.4 1.9-0.7 3.6-2.8 1.9-7.3 1.8-2.9 0.7-3.9 1.8-2.4 2.2-1.7 1.9 0.9 1.8 0.5-0.6 3-2.2 1.6-1.4 2.5-1.2 2.9-3.1 5.5-1.6 6.5-0.2 4.6 0.3 4.8 4.4-0.9 4 1.3 4.2 2.6 1.4 5-0.2 5.8 1.2 5.7 2.7 4.9 3.1 4.8-3.2 3.3-3.3 2.9-4 1.1-4 0.2-2.9 0.7-7.9-1-0.5-1.4 0.9-1.9-0.8-1.7-1.7-0.4-4.5-2.3-6.1-11-4.4-3.8-2.2 2.3-1.8 2.8-2.9 0.6-1.9 0.9-2 0.7-7.4 1.4-3.8 1.5-4 0.7-2.9-4.5 1.2-7.4-5-1-14.1 4.5-7.6 1.6-6.5 0.7-6.1 7.6-2.8 0.8-2.7 1.9-2.3 2.2-2.5 1.2-3.1 0.5-2.8 1.3-2.1-1-0.7-1.2-0.2-1.5-0.7-2.1-1.1-1.8-2.3-3-1.2-2.1 1.9-1.5-0.9-1.1-1.9-0.7-1.7-0.6-3.1-5.4-2.3-1-1.9 1.1-0.8-0.1-0.1-1.8-3-2-2.7 0.5-0.8 3.1-0.5 1.1-0.9-0.9 0.6-4.9 4.6-2.3 4-1.3 5.7 1.7-2-3.4-1.1-1.3-1.5-1.1-1-0.2-1 0.7-0.8-0.5-1-1.1-0.9-1.2 2.9-7.8 1.6-3.5 2-1.3-1.5-1.8-5.8-1.8-2-1.1 2-1.9 6-1.5 1.3-1.7-0.9-2.2-2.1-0.6-4.5 0-0.9-0.7-1.6-1.9-1.1-1 0-1.1 1.8 0-2.1-3.8 2.5-1.4 2.8-0.8 2.6-3.8 5.6-1.6 2.6-1.4-7.9 0-1.9 1.1-2.9 4.4-2.2 0.4-1.3-1.7-1.2-3.1-0.8-3.2 0.1-1.9 2.8-3.3 1.3-2-0.4-0.9-2.6 0.9-1.2-1.1-1.1-0.7-0.6-0.2-0.6-1.5 0.5-1.4-0.1-1.6-0.6-2.9-0.9-1.2 0-0.7 1.8-0.1 2.7-1.3 2.9 0.1 0.2-2 0.8-1.9-1.1-1.4-1.6-0.4-2.2-2.1 1.4-2 1.9-1.5-1.3-2.4-3.2-0.6-0.7-2.8 1-2.1 3.2-0.5-1.8-2.1-0.6-1-0.5-1.5-1.1 1-1.9 2.1-2.2 0.9-0.4 1.2 0.1 1.2 0.9 1.4 0.2 2.9-1 3.3 0.6 4.4-1.4 3.8-1.3 1.5-2.5-1.9-2.6-0.1-2.6-1.8 0.6-9.1 0.9-3.3-1.6-0.7 0.5-4.3-1.5-1.8-2.2 0.4-1.2 2.2-0.3 2.7-1 2-3.1 0.1 1.3 2.6 2.4 3.9 0.9 2.8-1.5 1.3 0.2 1.4 2.3 3.1-2 0.4-1.8 1-1.5 1.4-1.2 1.8 0.1-1.3-0.2-1.2-0.3-1.2-0.5-0.9 1.9-4.2-4-6.5 1.2-3.3-1-4.6-2.5 1.4-3.6 4.5-2.6 1-1.6 0.3-1.4 0.6-1.4 0.1-1.6-1-0.4-0.8-0.6-1.5-0.2-1.6 0.7-0.7 5.6 0.1 1.4-1-0.1-2.6-1.4-2.6-2.1-1-2.2-0.7-1.7-1.4-0.7 2-0.4 4.2-0.8 2-1.6 1.4-0.5-1.4 0.2-4.2-0.3-4.1 0.4-1.2 3.4-4.4 0.7-1.5 0.6-2.2 0.4 1.7 0.6 1.4 0.7 1.4 1 1.4 0.7-0.7 0.9 0.1 1 0.3 1.1 0.3-1.4-2-1.4-2.6 3.8 1.1 1.6-0.4 1.1-2-3.5-0.2-2.1-1-0.3-2.1 2.2-3.6-3-2.6 0.2-2.3 2.3-1.9 3.3-1.2-0.8 4.1 0.3 1.2 1.9 0.4 3.3-0.1 0.9-0.6 0.9-1.6 0.3-3.8-0.4-5.1 0.6-4.2 3.2-1-0.4 2.4 0.1 3.7 0.6 3.7 1.7 4.4-0.9 1.6-1.3 1.4-0.8 1.5 0 1.5 0.9 2.5 0.1 0.7-0.7 0.8-2.5 1.6-0.5 0.4 0.1 1.5 0.5 1.6 0.7 0.9 1-0.5 2.3-2.1 1.7-0.1 3.9 2.7-2.8-6-1-3.8 1.4-1.7 2.2 2.8 1.3 0.8 0.7-1.8 0.5-0.6 1.5-0.5 2.7-0.7 0-1.1-1.1-0.1-2.6-1.1 0-1.1 3.2-0.8 2-3.1 0.5-3.8-1.1-2.8-1.2-0.4-3.5-0.1-1.8-0.7-1.3-1.6-0.4-1.5 0.6-0.6 2 1.4 0.9-2.6-1-1.6-2.1-0.6-2.5 0.2 1-1.3 1.4-1 1.4-0.2 1.4 0.7 1.3 1 1.1 0.3 0.5-0.6-0.6-1.2 0-1.3 5-0.1 2.4 0.8 1 2.3-0.7 1.4-1.3 1.5-0.8 1.9 0.9 2.7 1.2-1.2 1.5-0.8 1.3 0 0.6 1.4 0.2 1.2 0.6 1.1 0.1 1.2-0.2 0.4-1.2 1.5-0.4 1 0 7.6 0.4 2.2 1 1.5 1 0.6 0.5-0.8 0.5-4.2 2.5-8.1 0.6-4 0.7-0.9 1.6 1.1 2.4 2.6 1 1.8 0.6 1.7 1.1 1.1 1.9 0.1 0-1-1-1.3-1.1-3.5-1.1-1.7-8.3-8.8-0.6-0.5 0.5-1.8 1.1 0.2 1.4 1.3 2.2 2.7 1.1 1.1 1.4 0.6 1.7 0 1.3-0.8 0.1-1.1-0.9-1.1-1.9-0.5-2.6-1.2-2.8-2.7-1.3-3.9-0.3-2.6 2.5-0.1 2.2 1.1 1.9 1.7 2.7 1.9 2.6 1.8 1.1 1.1 2 1.4 2 1.1 1.4 2.3-0.7 2.3-1.3 1.6 0.3 1.2 1.3 2.5 0.2 1.6-0.5 2.8 1.5-1 0.6-1.3 0.3-1.4-0.5-4.1 0.6-1.4 0.8-1.5 1.3-2.3 2.2-1.1 2.1 0 2.4 0.3 2.6 1 3.3 0.8 2.3 1.6 2.9 2.9 0.2 3.7-2.2 7.3 1.7-1.1 2.5-3.3 1.4-0.2 1 1.4 0.5 2.5 0.3 4.8-0.1 1-0.6 2.3-0.2 1.4 0.3 1.4 1.2 2 1.1 5.3-0.3 1.5-2.3 0.6 0.4 1.5 0.6 0.9 0.7 0.7 1.2 0.5 0.8-3.8 1.3-2.2 0.7-2.4-1.1-4.3 2.7 0.8 2.9 0.4-4.7-5.2-1.4-2.9 2.8-1.2 2.5-0.4 5.9-2.4 2.6-2z"></path>
        <path id="incheon" name="인천" d="M342.3 230.6l6.2-0.2 6.9-0.2 8 7.7 0 4 1.4 3.3 2.2 1.5 1.3 2.1-1.3 4.2-1.9 3.7-1.8 1.4-1 0.7-4.3 1.3-0.4-1.2-7.1-0.9-3.3 4.2-3.4-2.6 1.4-3.1 1.8-2.7-1.1-1.9-2.5-1.3-2.2-1.2 0.3-3.1-0.4-2.5 1.3-2.3 3.9-1.2 1.2-0.6 0.3-1.4-1.9-0.5-0.5 1.5-2.8 0.3-0.7-1.7-0.3-3.1 0.7-4.2z m-5.5 6l0.5 0.5 0.6 0.9 0.7 0.7 0.5 1.1 0.4 0.9-0.8 0.3-1.1 0.9-0.5 0.6-2.3 0.6-1.1-0.2-1.4 0.7-3.2 1.3-1.7 1.6-1 1.7-5.9 4.4-1.3-0.3-1.2 0.2-0.6-0.2-0.5-2.1-1.1-0.6-0.5 0.5-0.5 0.2-0.1-0.4 0.2-0.6-0.3-0.8-0.8-0.1-0.6 0.7-0.8 0.6-1-0.4-1.5-0.4 0.9-0.8-0.3-1-1.5-1.4-0.4-0.9 0.5-1.2 0.8-0.3 1.2 0.6 6.1-4.3 4.4-0.5 3 0.1 2.8-1.5 0.9-3.8 1.9-0.7 1.6 1.6 0.7 0.3 0.8 0.4 0.8 0.3 0.8 0.1 0.8 0.1 1.1 0.6z"></path>
        <path id="jeonbuk" name="전북" d="M370.5 485l6.1-7.6 6.5-0.7 7.6-1.6 14.1-4.5 5 1-1.2 7.4 2.9 4.5 4-0.7 3.8-1.5 7.4-1.4 2-0.7 1.9-0.9 2.9-0.6 1.8-2.8 2.2-2.3 4.4 3.8 6.1 11 4.5 2.3 1.7 0.4 0.8 1.7-0.9 1.9 0.5 1.4 7.9 1 2.9-0.7 4-0.2 4-1.1 3.3-2.9 3.2-3.3 1.2 1.4 1.3 1.2 1.1-0.2 0.8-1.2 2.3 1.3 2.1 2.4 6 2 1.3 1.6 2.2 0.6 4.3-2.6 5-2.3 2 1.9 2 1.1 1.7-1.6 1.8-1.8 5.5 9.4-0.6 10.7-5 5.3-1.3 3.5-6.7 3.6-3.4 1.1-1.8-0.2-1.3 0.8-2.6 5.5-2.9 3.1-3.1 2.8-1.5 4.3-0.4 5.2-1.7 3.7-2.1 3.9-1.6 5.1-1.2 5.2-1.9 3.8-0.1 4.2 3.5 1.5 0.5 1.8 0.2 2.1 1.5 4-0.2 4.2 1.4 3.2 1.9 1.3-0.8 4.5-5.7 6.8-0.9 4.5-0.1 4-2.9 3-7.7-6.3-8.7-3.1-4.9 2.7-4 4.3-4.2 0.6-4.5 0-4.9 0.7-5-0.1-2.3-1.4-2.1-1.6-2.4 0.6-2.8 0-4.1 0.7-3.9 2.3-5-0.7-3.3-3.5 0.2-5.5-2.8-3.1-0.8-3.1 1.2-4.8-2.7-4.2-4 0.2-1 1.7-1.3 1.3-0.9 2.2-0.3 2.4-4.2 0.1-6.4-8.7-4.1-3.4-2.4-1-2.4-0.2-2.3 2.7-4.6-0.4-3.4 3 0 2.3 0.1 2.2-1.2 1.9-1.8 1.3 0.1 1.8 0.3 1.7-1.1 2.3-1.8 1.6-2.2 1-2.4 0.7-1.9 1.2-1.8 1.4-4.6 0.6-4.3 1.6-4 1-3.4-1.1 0.2-4.5 0.9-4.5 0.8-6.1-4-1-13.1 3.6-2.8 0.9 0 0.1-1.9-2.2-0.7-1.8 1-3.9 2.3-4.9 3.7-8.5 3.1-4.5 4.4-1.6 5.1-1 4.3-0.3 2-1.6 1.9-2.7 2.7-0.7 2.4 2.7 2.5 3.1 1.8 0.6-1.8-6.2-1.2-2.9-2.1-1.1-19.2 3.1-6.7-4.2 0.4-4.5 0.1-1.8 3.2-1.5 2.8-2.8 2.5-2.9 4.1-2.4 5-2.8 3.8-5.3 0.5-4.9 2.1-1.3 1.6-1 0.8-0.7 4.9-0.5 4.7 0.6 3 2.4 2.2 0.5 1.4 2.5 0.6-1.4 0.5-1.8 0.2-2-1.8-1.5-1.3-0.9-2.6-1.3-2.9-2-2.4-1.8-1.3-0.6 0.4-1.4 1.1-1.6 1.1-0.9 1.3-0.3 7.5 0.5 1.7-0.2 1.2-0.6 0.8-1.5 0.4-1.2 0.6-0.9 1.9-0.3 0.6-0.5-0.7-1.3-1.5-1.2-1.6-0.6-0.4 0.3-10 4-3.3 0.2-6.6-0.4-6.5-0.5 0-2.9-0.4-4-1.3-1.1-4-1.4-6 1-0.6-5.1 12.3-1.3 6.7-0.8 6.7-0.4 2.2-1.3 2.4 0.6 2.8-1.4 5-3.8 6.3-2.6 2.7-1.9 0.3-2.4-8 2.5z m-75.1 79.6l-0.6-0.6-0.4-1.1 0.2-1 1.5-0.8-0.2-0.3-0.7-0.4 0.3-0.4 0.8-0.4 0.5-0.7 0.8-0.2 0.5-0.2-0.2-0.9 0.5 0 1.6 0.3 1-0.8 0.5-0.6 0.6 0.5 0.3 1-0.5 1.2-2.5 2.2-1.7 1.8-1.1 0.9-0.4 0.4-0.8 0.1z"></path>
        <path id="jeonnam" name="전남" d="M319.7 598l0-0.1 2.8-0.9 13.1-3.6 4 1-0.8 6.1-0.9 4.5-0.2 4.5 3.4 1.1 4-1 4.3-1.6 4.6-0.6 1.8-1.4 1.9-1.2 2.4-0.7 2.2-1 1.8-1.6 1.1-2.3-0.3-1.7-0.1-1.8 1.8-1.3 1.2-1.9-0.1-2.2 0-2.3 3.4-3 4.6 0.4 2.3-2.7 2.4 0.2 2.4 1 4.1 3.4 6.4 8.7 4.2-0.1 0.3-2.4 0.9-2.2 1.3-1.3 1-1.7 4-0.2 2.7 4.2-1.2 4.8 0.8 3.1 2.8 3.1-0.2 5.5 3.3 3.5 5 0.7 3.9-2.3 4.1-0.7 2.8 0 2.4-0.6 2.1 1.6 2.3 1.4 5 0.1 4.9-0.7 4.5 0 4.2-0.6 4-4.3 4.9-2.7 8.7 3.1 7.7 6.3-0.7 3.6 2.8 3.3 1.3 4.2 0.6 8.8 1.8 3.3 3.4 2.5 3 3.1 1.2 3.5 1.4 3.1 8.5 9.2 1.8 4.5 0 3.1 0.3 0.7-0.9-0.2-5.5 0-1.8-0.3-0.7-0.8-0.3-1.3-0.8-1.6-1.6-1.2-0.4 1.2 0.3 2 0.3 0.9-1 3-0.6 1.1-1.2 1.4-5.1 4.1-2.9 1.3-2-1.7-2.6-5.3-2.1-0.8-1.5 2.1-0.7 3.3 0.1 2.8 1.3 2.9 2.1 3.8 2.4 3.3 2.2 1.4 1.5 1.9 1.4 0.7 1.7-1 4.2-4 2.9-0.4 2.5 0.5 2.3 0.1 2.6-1.3-0.2 3.2-0.4 2.4-1.4 4.6-1.5 8.3-1.2 1.9-4.7 1.6-3.8-1.9-3-0.7-2.5 5.5-0.8-0.5-0.2 0-0.2 0.3-0.7 0.2 1.1 2.1 0.8 2.4 1 7.3-0.6 1.4-1.4-0.8-2.3-2.3-3.2-0.4-2.4-1.3-1.6-2.5-0.6-3.7 0.8-3.5 1.8-3.4 1.2-3.2-0.6-2.8-1.1-1.6-2.1-4.6-0.6-0.4-0.8 0-0.8-0.1-0.6-0.8-0.1-0.8 0.2-1 0.4-0.6-2-4.4-0.4-1.6 0.2-0.9 0.6-1.7 0.1-0.8-0.3-0.9-0.6-0.8-0.7-0.2-0.3 0.7-0.4 0.4-2.3 5.9-0.9 1.2-0.5 0.4-0.7 0-4.6 1.7-2.7 0.3-5.9-0.1-2.2 0.6 1.8 1.5 3.5 1.5 2.9 0.9 0 1-5.8 1.8-2.9 1.7-0.5 2.2 1.2 1 2.5-1 1.4 0.5 0.9 1.6-0.2 0.6-0.8 0.2-0.3 0.4 1.8 6.6 4 3.5 4.2 2.7 2.9 4.2-1.4-0.2-2.4 0-1 0.2 5.8 2.2 0.8 1.9 0.4 3.4-1.3 1.2-1.4 1.2-2.6-0.1-1.7 0.4-6.2-3.8-1.9-0.7-1.8 0.4-2.2 1-1.8 1.3-0.8 1.3 0.3 0.5 1.6 3.4 1.9 0.4 1.2 0.8 5.1-1.4 2.8 2.4-6.4 5.9-2.3 3.3-2.5-1.2-3.9 3 0.4 2.9 1.8 1.9-3.8 0-5.5-7.3-1.9-4-5.1-5.5-1.6 0.4-5.3 2.8 0.5 1.7 0.4 0.6-2.2-0.7-2.1-0.4-1.9-1-1.2-2.4-0.2-2.4 0.9-1.4 3-1.8 1-0.8 2.7-3.7 1.7-3.5 0.9-1.2 2-1-0.1 2.7-0.7 2.7-2 4.8 4-0.2 3.3-1.3 2-2.7 0-4.9-0.8-1.9-1.1-1.1-0.8-1.2-0.1-2.5 0.7-1.3 3.9-4.4 1.5 0.8 0.9 1 0.2 1.3-0.7 1.5 0.8 2.2 1.2 1.5 1.5 0.5 2.1-0.8 0.9-1.1 1.9-4 1-1.7-1.9-2.8-0.7-3-1-1.3-2.5 2-3 1.3-2.4-2.1-3.4-5.4-1.9 3-2.7 7.1-1.9 2.3-2 0.8-1.6-0.1-3.4-0.7-1.6 0.6-1.5 1.3-2.5 3.3-1.1 0.9-4.9 2.9-2.7 2-1.7 1-1.7 0.5-1 0.5-0.2 1.4 0 1.8-0.2 1.9-0.9 1.4-1.3 1.4-0.6 1.8 1 2.1-7.5 7.4 0.3 6.8-1.3 1.1-3.6-1.8-1.2 1.5-0.6 1.6 0.1 1.7 0.8 2-1.8-0.6-3.8-2.7-5.2-1.5-1.2-0.8-1-3.1 0.5-8.3-0.5-3.3 0.7-2-0.1-2.6-0.9-2.2-1.6-1.1-1.4 0.4-1.5 1.4-1.1 1.8-0.5 1.5 0.6 2.3 0.8 2 0.1 1.4-4.2 1.4 0.5 2 3.1 3.8-5.2 3.1-2 1.8 2 0.8 0.5 0.3 0.1 0.8-0.1 0.8-0.5 0.4-0.8-0.2-1.3-0.7-0.6-0.2-1.8 0.3-0.4 0.7 0 1.2-0.7 1.7-1 0.7-4.1 1-1.5 1.3-0.5 1-3.3 11.1-0.3 1.6 0 1.9-3.3-0.7-6.2 2.1-1.6-0.4-0.2-1.9 1.3-3.9-0.3-1.9-1.2-1.1-1.7-0.3-3.6 0.2 0-1.1 0.8-0.9 0.2-0.7 0.3-2.5 0.4-0.1 0.6 0.2 0.6-0.4 1.9-3.5 0.4-1.7-0.5-1.7-0.7-0.5-1-0.4-2-0.2-1.5-0.4-0.2-0.9 0.4-0.8 0.3-0.2 0.1-2.1 0.5-2.1-0.2-1.1-2.2 0.8 0.6-4 2.7-2 3.6-0.7 3.4-0.1-0.6-1.2-0.9-1-1-0.7-1.3-0.4 2.1-1.5 1.3-1.8 0.1-1.5-1.7-1-0.6 0.3-1.2 1.5-0.9 0.6-1.1 0-1.7-1.1-1 0-0.8 0.7-0.6 1.1-0.4 1.5-1.2 0.3-1.2 0-1.3-0.3-2.9 0.1-1.6 0.3-2 0.8-0.2-2.7-1.2-1.5-3.2-1.6 0-0.5-0.7-1.3-0.8-0.8-0.4 1.1-0.4 0.6-0.9 0.5-1.1 0.3-0.9-0.4-2.8-2.7-0.4-0.1-0.4-1.7 0.2-0.5 0.6-0.2 0.5-0.9 0.5 0.8 1.4 0 1-0.8-0.6-1.7-3.6-1.8-2.8-2-0.3-4.8 1.2-5.3 1.4-3.6 0.2-1.3-0.1-1.5 0.2-1.3 1.1-0.5 1 0.1 1.1 0.3 0.7 0.5 0.9 2 4.2 6.2-1.3 1.7-0.4 1.6 0.2 1.7 0.5 1.8 2.8 7.9 1.7 1 6.7 1.1 2.9 2 1.5-0.1 1.1-2.9-1.5 0.3-0.8-0.4-2.8-0.7-1.3-2-1.7-1.7 0.4-3.8-1.8 0.3-0.8 2.3-1.4 0.2-0.9-3.1-0.4-4.1 1-2.4-0.8-2.9 3.8-0.3 5.6 1.2 0.8 1.3-0.4 2.2 0.1 0.6-0.1 0.7 0.3 1 1.4 0.9 0.9 1.1 1.7 1.2 2.5 0.9 1.4 1.4 1.9 1.4 1.4 0.9 0.6-0.7-2.8-3.7 1.7-0.4 2.5 1.4 3.2 1.8 3.9 1.3 2.9-0.8-2.9-0.5-2.3-1.4-4.1-3.6 1-1.2-2.9-2.2-4.5-5.7-2.4-1.1-3.4-0.7-4 0.2-2.8-1.7-3.4 0.9-3.1-1.1-0.4-1.5 1.9-2.5 1.9-0.7 4 0.6 5.2-2.3 6.2 4.6 2.1-0.4 0.5 0.3 0.3 0.4 0.4 0.2 0.6 0.3-0.6-3.2 0.3-2.9 1.6-2.1 3.4-0.8 6.2 1.8 3.1 0.3-0.9-2.1 2.1-1.1 1.1-0.2 1.4 0-2-2.3-3.1-0.5-7 0.6 0.5-1.6-0.2-1.1-0.3-1.1 0-1.7 0.5-1.1 0.7-0.8 0.6-1.1 0-1.7-1.1-2.4-1.8-0.6-2 1-1.5 2-0.2 1.4 0.9 2.8 0.2 1.5-0.2 0.2-1.7 3.3-1.5 5.6-1.4 1.9-2.7 0.2 0-0.3-0.8-0.7 0.5-0.9 0.7-1.7 0.6-0.9-1.8-0.9-1.3 0.6-1.2 1-1.7 0.6-3.7-0.8-1.1 0.5-0.2 1.7-1.9 0-2.9 0.9-1.4-0.7-0.5-1.7 1-1.7 2.7-2.7 1-1.6 0.6-1.2 0.2-1.1 0.1-1.3-0.4-2.4 0.5-1.3 1.7-1.5-1.6-1.3-1.5-2.8-0.8-3.2 0.2-2.8 1.9-1.7 2.6-1.7 0.8-1.5-3.4-0.8-1.6 0.3-0.9 0.8-0.7 0.8-1 0.4-1.3 0.6 0.2 1.7 0.6 1.8 0.1 1.6-1.9 1.7-2.5 0.2-2.3-0.8-1.7-1.1 1.2-0.9 0.6-0.2-1.2-0.9-1-1-0.8-1.2-0.7-1.5 1.6-0.8 1.5 0 3.4 0.8-0.4-3.6 3.7-3.8-1-3.4-3.8-5.4-2.4-2.2-2.6-0.9 1.1 3.8-1 2.1-1.9 0.1-1.9-2.6 1.3-1.7-3.5-4.7-0.5-2.7 1.9-2.3 2.8-0.4 2.5 1.3 1.1 2.6 1.7-1.1 0.9-1.9 1.1-3.8 1 1.9 0.2 1.6-0.4 3.1-0.6 1.5-0.2 1 0.3 1 0.5 0 0.7-0.3 0.4 0.3 0.5 2.2 0.2 0.9 0.4 0.6 1.7 0.9 1.3 0.5 2.3 0.1 1 0.6-0.8 1.9 0.2 1.8 1 1.7 1.4 1.5 3.5-7.8 0.3-2.6 0-3-0.7-1-2.6-0.7-1-0.6-0.9-0.9-1.4-3.7-4.5-5.2-1-2.4 0.3-0.8 0.6-0.7 0.7-0.9 0.3-1.5-1.5-1.1-0.7-1.3 0.3-2.3-1.7 0.7-1.8 0.3-3.9 0.1 1.5-1.9 2.5-0.6 2.8-0.1 2.5-0.6-0.8-0.4-0.5-0.3-0.5-0.4-1-0.2 0.6-1.5 0.8-0.9 0.9-0.6 0.9-1 0.5-1.2-0.3-1.1-0.4-1.1-0.2-1.1 0.4-2.6 1.2-2.6 3-4.5 0.8 0.8 2 2.6 2.4 0.7 1.2-0.1-0.3-1.2-2.6-2.9z m74.3 21.8l-7-2.6-3.7 1.1-3.5 0.8-4.9-1.2-2.9 2.7 3.7 8.2 7.4 4.4 8.3 1.4 5.4-7.2-2.8-7.6z m25.5 124.8l4.2-0.5 2.2 0.2 1.8 0.9 1.5 2.6-0.4 3.1-1.8 2.5-2.5 1-5.6 1.1-2.2-0.4-1.6-0.7-3.2-2.2 0-1.2 0.7-0.9 0.2-0.8-0.6-0.7-1.2-0.9 1.9-1.4 2.1-0.9 4.5-0.8z m-107.6-2.4l0.3 2.2-0.4 2.6-0.7 2.4-2.7 5.7-1.1 1.8-1.3 0.9-0.3-0.5-2.3-2.2-1.1-0.7 0 1.1-0.5 2.6-12.9 7-1.6 0.6-5.7 0.5-1.6-0.5-0.2-1.4 0.7-1.2 1-1 0.4-0.8-0.7-1-3.9-2.5 0 3.5-2.9-3.4 1.7-5.5 3.9-4.4 3.8-0.3 1.2-3.6 0.8-1.2 1.2-1.4 1.5-0.8 1.3-0.3 1-0.7 0.3-2.3 1.6 1.9 2.2 0.3 1.9-1.3 0.8-2.5-1-2.1-3.5-2.7 0.9-1.4 2.2-0.1 2.2 1.2 2 1.5 1.4 0.8 0.4 0.5 0.4 1 0.6 1.1 0.9 0.8 0.6-0.2 3.1-2 0.1 1.4 4 6.6z m190.1-30.7l1.4 0.4 1.3 2 0.9 2.4 1.2 4.1 0.1 2.4-0.4 2.3-1 2.3-1.3 1.4-1.6 0.1-1.5-0.8-4.8-4.9-0.5-1.9 0.8-3 0.6-0.8 2.5-1.9 0.5-1 1-4.2-2.1-2.2 0.3-1.3 1.5-0.7 1.6-0.2 1.5 0.6 0.4 1.6-0.7 1.8-1.7 1.5z m-243.1-4.7l1.7 1.5 0.4 0.6 0.1 1.3-0.2 1.3-0.6 1.2-2.1 2.8-0.9 0.7-1 0.1-1.3-0.2-0.1-0.5-1.9-1.1-2.1-1-0.6 0.3-1.3-2.8 1-1.3 4-1.6 2.4-3.3 0.9-0.5 0.5 0.4 1.1 2.1z m2.5-11.2l0 3.5-0.6-0.3-1.5-0.4-0.7-0.4-1.2 1.6-1.8 0-1.7-0.4-0.8 0.4-0.3 2.3-0.7 1.9-1.2 1.5-1.6 0.7-1.6-0.2-1.1-1.1-0.7-1.8-0.3-2.1 0.4-2.1 1.1-1.4 1.5-1 1.7-0.7 1.8 0.8 2.4-0.6 4.5-1.7 0.9-0.1 0.6 0.1 0.5 0.5 0.4 1z m6.6-21.9l0.6-2.2 1.3-0.3 1.5 1 1.1 1.9 0.3 2.4-0.4 2.3-1 2-1.6 1.3-2 0.6-1.1-0.4-0.9-0.8-1.1-0.4-4.4 1-1.7 0 0-1 1.3-1.2 2.5-3.9 1.8-1.7 0.9 0.1 1.3 0.3 1.1 0 0.5-1z m7.4-22.8l-0.7 0.2-3.6-0.9-1.3 0.2-0.5-0.4-0.3-0.4-0.4-0.2-0.6-0.1 1.1-5.3 0.7-1.5 0.9-0.6 1.6-0.5 1.5-0.7 0.7-1.1 1-2.3 2.5-1.5 2.7-0.7 2.1 0.6-4.1 2.4-1 1.4-0.1 1.6 0.6 1.7 1.8 3-1.4 0.6-1.5 1.5-1.2 1.7-0.5 1.3z m162.5 169.7l0.8 0.8 1 0.2 0.3 0.6-0.1 0.8-2-0.9-1.8-0.5-0.4-0.5-0.4-1.1-0.3-1.4-0.5-0.3-0.4-0.5-0.4-1.2 0.2-0.6 0-0.8 0.1-0.7 0.4-0.1 0.5 0.2 0.6-0.2 0.4-0.5 0.2 0 0.3 0.7-0.5 1.5 0.3 1.7 1.7 2.8z m30.2-70.5l0.6 1.6 0 1-1 1.1-2.5 1.6-2.1 0.6-0.8-0.4-0.1-1.4-0.9-1-1.4-0.4-0.6-0.9 0.4-0.6-1.5-1-0.9-0.7 0.5-1.2-0.1-0.9-0.2-0.7 0.6-0.4 1 0.4 1 0.6 1.9 0.5 0 0.4 0.7-0.2 1.2-1.2 1.2 0 3 3.2z m34-9.3l0.9 0.5 0.6 0.9-0.3 1-1.7 0.6-1.1 0.1-0.2-0.3-0.5-0.7-1.2-0.7-2-0.6-1.3-1.1-0.6-1.4-0.7-1-1.1-0.6-1-1.2 0.7-1.4 2.3-1 2.5-0.4 1.8 1.3 2 4-0.2 1.2 0.1 0.6 1 0.2z m-228.1-14.8l0.3 0.3 0.3 0.8-0.2 1.8-0.4 1.8-0.1 1.6-0.8 0.8-1.1 0.8-1.1 1.1-2.7 1.6-1.4 0.2-1.6-0.5-0.5-0.8 0.8-0.3 0.8 0 0.7-0.7 0.8-0.6-0.1-0.6-3-0.7 0.7-0.8 1.9-0.3 1.9-0.1 1.6-1.2 0.6-1.6-0.6-1.6-1.4-2.2-0.8-2.8 1-0.7 1.6 1.3 1 1 1.7 1 0.1 1.4z m-8.4 4.5l-1.3 0.6-1.1-0.9-0.5-5.7 0.5-3.2 1.1-1.5 1.7 3.8 1.5 2.1 1.1 2.4-0.4 1.9-1.2 0.4-1.4 0.1z m-80.3-19.6l1.5-0.4 0.3 0.7-1.2 1.1-0.6 0.8-0.4 0.9-2.1 2.5-0.4 1.2-0.9 1.5-0.7 0.9-0.6 0.7-1.3-0.6-0.9-2.4 0.2-2.2 0.7-2 0.9-1.7 1-1.6 1.2-0.8 1.1-0.3 0.6 0.5 0.4 1.2 1.2 0z m98.7-7.3l0.5 1.4 0 1.8-0.7 1.6-1.8 0.1-1.6-1.6-1.2-1.8-1.5 0-0.7 0.6-0.5 0.3-1 0.1-0.9-0.7-0.3-1.5-1.2-2.2-2.7-2.8-0.5-1.4 1.3 0.3 1 0 1-0.5 1.5-0.1 1.7 0.2 1.3 0.6 0.8 0.9 1.2 0.6 1.6 0.1 1.3 0.3 0.9 0.8 0.5 1-0.1 0.8 0.1 1.1z m-0.7-9.8l-0.4 0.4-0.5 1 0.3 2.3-0.8 0.8-1.7 0.5-1.5-0.9-1.8-1.5-2.3-0.9-1.6-1 1.3-1.1 3.4-0.5 2-0.9 1-0.9 1.3 0.6 1 1.4 0.3 0.7z m-12.1-5.1l-1.1-1.5-1-1.8 0.4-1.3 2-1 1.6-0.1 1.3 0.7 1.3 0 0.3-1-0.2-2 1.3-1.2 1.7 0 0.9-0.1 0.7 0.4 0.6 0.9 0.2 1.1-1.8 1.1 0.6 2.6-0.3 1.5-1 0.6-1.3 0-0.9 1 0.1 1.8-0.5 1.6-1.4 0.8-1.2-0.1-0.3-1 0-0.6-2-2.4z m22.6-15.4l-1.2 0.5-1.6-0.1-0.7-1.4 0.3-1.6 1-0.6 2.4 0 0.7 0.3 0.1 0.7-0.5 1.7-0.5 0.5z m-9.2-21.9l0.3 0.7 0.2 0.9-0.1 1.6-0.5 0.5-0.7 0.4-0.7-0.3-1.3-1.3-0.5-0.4-0.7 0.4-0.7-0.1-0.2-0.7-0.5-0.3-0.7 0-0.2-0.3 1-0.8-0.4-0.2-0.6 0.1-0.6-0.2 0.3-0.7 1-0.7 0.9-0.1 1.2 0.5 1.7-0.1 1.2 0.3 0.6 0.8z m-142.4 164.6l-0.7-0.4-2.7-2.5-1.5-0.9-0.3-1.3 0.7-1.7 1-1 1.5 0.5 1.2 1.5 1.9 4 0.2 1.3-0.5 0.8-0.5-0.1-0.3-0.2z m199.4-19.7l1.2 0.5 1.1 1.4-0.3 0.8-0.6-0.5-0.4-0.1-0.3 0.6-0.5-0.2-1.2-0.7-1.3 0.1-0.7 0.7-0.5 0.9-1.5 1-1.4 1.2-2 1.2-2.6-0.1-1.4-1.9-0.1-2.5 1.2-2.4 2.4-1.7 2 0 2.7 1.7 0.8 0.1 1.1-0.3 1.6 0 0.7 0.2z m9.9 2.5l0.6 0.3 0.4 0.8-0.4 0.5-0.6 0.1-0.2 1 0 1.7-0.7 1.2-1.3 0.4-0.7-0.4-0.2-0.8-0.7-0.5-0.7-0.1-0.3-2.2 0.9-3.8 0.3-2.1-0.9-0.9-0.3-0.7 1.1-1.1 0.1-0.5 1.2 0 2.3 1.1 0.3 1.6-1.3 1.2-0.2 1.2 1.3 2z m32.2-7.2l1.3 1.1 0.8 1-0.3 2-0.4 0.9-0.8 1.5-1.6 0.9-2 0.2-1.5-0.8-1.2-1.1-0.9 0.1-0.5 0.8-0.5-0.3-0.6-2.5 0.9-1.7 0.2-1.6 0.5-1.2 1-0.9 1.9-1 2.3 0.6 1.4 2z m-40.3-3.4l0.6 0.8 0.1 1.4-1 0.8-0.4 1.9-2 0.1-1.1 0.2 0.7 1.2-0.7 0.6-2.1-0.6-1.1-1-0.2-0.6-0.6-0.2-0.6-0.2-0.2-0.5 0.7-2 0.4-0.7 0.1-0.5-0.3-0.4 0.1-0.4 0.5-0.2 0.3-0.4-0.1-0.4-0.6-1.2 0.4-0.4 1.1 0.4 1 0.5 2.8 0.5 1.5 0.8 0.7 0.5z m-71-14.7l-0.1 1.8 0.2 1.2-0.6 0.9-1.3 0.2-0.8 0.6-0.6-0.2-0.5-0.9-0.5 0-0.2 0.8-0.9 0.1-2.8-1.1-0.9-1.4-0.1-0.9 0.5-0.8 0.1-0.8 1-0.7 4.7 1 1.9-0.3 0.9 0.5z m103.8-0.1l-0.6 0.6-1.2 0.2-0.7-0.9-0.3-1.3-0.7-1-1-0.4-1.4 0.2-1.6 0.6-1.3-0.1-0.6-0.2-0.5-0.4-3-1.3-0.2-0.5 1.4-0.2 1.4-0.4 0.6-0.4 0.5-0.2 1 0.2 1.3 0.5 1.5-0.6 1.8-1.5 1.4-0.3 0.8 0.6 1 0.2 0.5 0 0.6-0.1 1.5 0.1 1.9 0.5 1.2 0.7-0.2 1.2-0.8 0.9-0.2 0.6-0.2 1.1-0.8 1-1.2-0.2-1.2 0.2-0.7 0.6z m32.2-6l0.5 0.4 0.2 0.8-0.8 0.2-1.1-0.6-1.4-0.3-1 0.4 0.4 0.4 0.8 0.5-1 1-2.4 1.8-1.3 0.7-0.2-1.5 0.7-1 0.9-0.6-0.5-0.6-3-0.6 0.4-0.7-0.3-0.8-0.9-0.6-2.3-0.2-0.9-0.3-0.4-0.3 0.4-0.3 1-0.2 0.7-0.5 1.3-1.5 1.3-1.1-0.1-0.5 0.5 0.2 0.9 0.9 0.9 1.3 0.5 1.5 1.1 0.5 1.8-0.6 1.4-0.2 0.6 0.6 0.5 0.8 0.8 1z m-44.4 5.9l0.3 1 0.7 1.8-0.4 0.5-0.7-0.1-0.7-0.2-1.2-0.6-1-0.6-0.6 0.1-0.1 1-0.7 0.3-1.2-0.5-2-0.5-2.6-0.9 0-1.1 1.3-0.9-0.4-1.2-1.1-0.3-1.4 0.3-1.8-0.5-1.6-1-1-1.2-0.4-1.8-0.1-2 0.1-2.1 0.6-2.1 1-1.5 1.5-0.7 0.8-0.2 2.4-0.3 1.5 0.5 1.5 1 1.6 1.9 1.2 3.2 0.4 2.6 0.4 1.2 0.8 1 0.4 1.4 2.5 2.5z m-0.2-12.1l-0.7-0.1-0.6-0.6 0.5-1 0.7-0.9 0.9-2.1 1.9-2.5 2.7-1.5 2.8-0.7 1.7 0.3 0.6 1 0.1 1.1-0.7 0.7 0.1 0.4 1.3 0.8 1 1.1 0.9 1.4 0.2 1-1 0.1-2.8-0.8-1.2 0.3-0.7 1-3.5 1.6-1.3 1.7-0.4 1.8-0.7 0.5-0.9-1 0-1.7-0.3-1.5-0.6-0.4z m-57.2-79.3l2.6 0.9 0.3 3.5-2.7 2.5-1.5-0.6 0.9-1 0.4-0.9-0.3-0.7-3.8-2-0.6-0.3-4 0.6-1.8 0.9-2 0.3-1.6-0.6-0.8-1 0.7-0.9 2.2-0.1 2.7-1 0.5-0.7 0.5-0.4 0.1-0.7 1.7-0.5 0.6-1.1 0.1-1.2-1.1-1.4-0.4-1.7 1.4-0.7 2.4 0.5 2.4 1.3 1.7 1.7-0.2 1-1.1 0.1-2.1 1.4-0.3 0.8 0.1 0.9 0.2 0.8 0.9 0.3 1.9 0z m-14.4-30.3l0.2-0.8-0.9-0.3-3.5-0.5-0.7-0.7-1.2-0.1-0.6-0.2-0.6-0.5-0.8-0.4-0.7-0.9-1.5-3.4 0.9-1.3 1.7-0.6 1.6 0.6 1.2 0.8 1.2-0.4 1.3-0.6 0.8 0.4 0.3 0.7 0.7 0 0.8-0.3 0.4 1.1-1 1-1.2 0-0.6 0.7 0 0.8 1.5 1.6 1.3 0.5 1.4 0.1 0.8 1.2 0.4 1.5 0.7 0.9 0.2 1.3-0.5 1.6-0.5 0.4-0.4-0.5-1.5-0.4-0.7-0.8-0.5-1 0-1.5z"></path>
        <path id="gyeongnam" name="경남" d="M479.7 613.6l2.9-3 0.1-4 0.9-4.5 5.7-6.8 0.8-4.5-1.9-1.3-1.4-3.2 0.2-4.2-1.5-4-0.2-2.1-0.5-1.8-3.5-1.5 0.1-4.2 1.9-3.8 1.2-5.2 1.6-5.1 2.1-3.9 1.7-3.7 0.4-5.2 1.5-4.3 3.1-2.8 2.9-3.1 2.6-5.5 1.3-0.8 1.8 0.2 3.4-1.1 6.7-3.6 1.3-3.5 5-5.3 1.1 3.7 2.7 1.6 1.3 1 1.2 1 0.2 1.4 0.5 1.3 1.1 0.5 1.1 0.4 4.1 0.3 1.8 1.5 2.2 1.5 3.9 0.3 3.8-0.1 3.5 1.2 2.6 2.8 1.8 3.5 3 2.1 0.8 1.6 0.4 1.4 2.1 1.3 1.8 2.1-0.1 4-1.6 3.7 2.1 7.7 8.4 0.4 4.1-0.6 3.9 0.7 3.7 1.7 3.5 2.6 3.8 0.8 7.3-3.7 3.7 0.7 3.3-4.8 3.2-2.4 1.1 9.2 3.4 4.2 4.2 2.7 5-0.5 5-0.9 4.5 1.3 4.2 2.2 5 0.2 4.5-3.5 1.9-0.7 2-0.3 1.8-1.6 1.6-2 4.9-2 5.2 1.3 4 1.8 3.8-1.2 0.6 6.6-3.4 6.8 2 4.1 8.4 1.3 3.5 2.7 5.8 6.7 7 3.9 3.1 2.4 0.9 4.6 3 2.9 3.8 1.4 0.6 0.5-0.6 2.2-0.3 3-0.8 1.6-0.9 1.4 0.8 2.3 0 0.9-1.5 3.1-2.2 4.6-2.4 2.9-1.3 2.7-0.2 0.5-0.3-0.6-2.7-2.8-2.5-3.1-3.1-2.6-2.4-3.3-0.8-3.7-2.6-1.7-3.5-0.1-3.2 1.3-2.5 1.9-2 2.4-1.4 9.8-1.9 2.9-2.1 2.6-1.1 2-0.6-0.6-1.3 1.9-4.1 7.3-1.9 0.1-0.1-3.4 0.1-3.1-0.9-0.2-1.2 2.7-0.9 3.9-3.4-0.4-8.9 0.2-0.5-3.1-0.9-1.6-1.3 4.6-1.3 0.7-3.2-1.4-1.5-2.8-1.6-0.2-2.1 1.6 0-7.2-0.5-0.6-1.2 0.4-1 1.6 0 2.5-2.2-1.7-1.7-2.4-1.8-1.5-2.8 1.1 0.6-2.3-1.1-3.4 0.5-1.2-1.3-4.4-0.8-0.4-1.6 1.4-1.6 2.6-0.1 1.8 1.7 3.6 1 4.4 0.6 1.5 1.1 2 2.3 3.1 0.3 1.5-0.6 2.2 1 0.2 1.7 0.7 1 0.3-1.2 0.8-1.2 0.3-2.8 0-1.4-0.4-0.4-0.8-0.1-1.1-0.4-1.1-1.3-1.4-1-0.7-7.3-2.6-2-0.1-4.5 0.8-1.2 0.6 0.1 1.2 1.5 2.2-2.5 0.5-4.6 2.4-5.4 1.4-0.7 2.1-0.2 2.3-1.5 1.5 0 1.1 13.6-7.2 2.2-0.2 0.5 3 0.8 2.1 0.3 1.9-1.1 2.2-1.7 1-2.7 0.4-2.6-0.1-1.8-0.7-0.9 1.6 0.6 0.8 1.3 0.7 0.9 1.4 0.1 0.8 0.1 1.3-0.2 3.4-1 6.8 1.2 1.2 1.2-0.4 0.9-1.3 0.5-1.7 1.8 2.2-1.9 3.4-3.4 4.5-3 0.9-4.1-0.3 0-2.5 2.7-0.1 1.1-0.2 0.7-1.1-8.5-0.9-1.7-0.7-2-2.7-0.2-1.4 1.4-0.9 3.1-1.2-3.1-6.2-2.2 2.2-2.3 4.3-3.1 0.2-2.9-3.8-1.5-1-3-0.3-1.4 0.8-0.8 2-0.2 2.6 0 2.4-2.8-0.5-6.3 0.3-2.5-1.4-0.3-0.9 0-2.4-0.2-0.6-0.6-0.2-1.5 0.3-2-0.5-3.2-0.3-1.1-0.6-0.6-1.3 0.1-1.3 0.3-1.2 0.2-1.1-0.2-12.3 0.2-2 0.4-0.9 0.7-1.2 0.6-1.6 0.2-2-2.1 2.5-1.8 3-2.1 2.2-3.3 0.3 2.5 5.8-1.7 1.2-3.7-0.1-3.5 2.2-1.4-3.9-0.9-1.7-1.5-1.1-0.4 5.3-1.4 4.2-2.9 2.5-3.6 0.4-1.4-0.6-1.3-0.3-1.1 0.1-0.8 0.8-2.1-1.7-1.4-0.4-0.3-0.7 0-3.1-1.8-4.5-8.5-9.2-1.4-3.1-1.2-3.5-3-3.1-3.4-2.5-1.8-3.3-0.6-8.8-1.3-4.2-2.8-3.3 0.7-3.6z m61.3 76.4l0.7 1.9-0.4 1.6-0.7 1.8-0.4 2.1 0.3 3.4-0.1 2-0.8 0.8-1 0.6 1.1 3.4-0.5 1.7-2.1 0.4-2-1.2-2.2-1-2.5 1.2-2.2 0.3-1.3-3.2-1.6-6.7-2.2-1.2-1.8 1.3-1.2 2.7-0.4 3.5-0.8 1.4-2 0.1-2-0.7-1.2-0.8-0.9-1.5-0.2-1.2 0-1.5-0.3-2.1-3.7-12.2-0.5-2.9 0.3-2.9 1.6-3 1-0.7 1.1-0.2 0.8-0.6 0.6-3.6 0.8-1.1 2.2-1.7 1.8-0.9 2.1 0.7 1.7 1.6 1.1 2.1-0.2 2.1-1.2 2.1-3 3.2 0.5 1.1 0.7 2.9 0.7 1.5 1.2 0.8 2.9 1 1.6 2.9 2.6-0.4 3.4-1.3 3.1-0.7 4.6 0.8 0.9 0.3z m92.1-8.9l-0.2 1.9-0.6 2.1-1.2 1.2-1.8-0.8 0.7 2.2 1.8 3.8 0.3 2.5-1 0.4-2.4-0.8-2.5-1.3-1.6-1.2-0.4 2.4-0.4 1.2-2.4 2.7-0.7 2.2 1.6 1.2 2.2 1 1.1 1.2-2.1 1.9-9.8 3-3 0.2 4.7-3.3-1.9-0.9-0.8-1.5 0.1-2 0.7-2.4-4.2 2.2-1.2-0.9-0.6-1.9 0-1.9 0.9-0.9 3.4-0.7 0.9-1.8 0.1-2.6 0.7-2.9-1.8-1.1-1.4 1.7-4.9 2.2-2.1 1.7-1.6-2.4-1.9-2.1-1.6-2.4-0.4-3.1 0.9-1.9 1.8-1.8 2-1.3 1.8-0.8 5.1-1 1.3 0 2.3 1 1.8 1.1 1.8 0.9 2.5 0.2 0-1-2.5-1.7-1.5-2.5-0.6-2.8-0.1-2.6 1.7 0.2 9.5-5.4-1.6-3 0.8-3.1 2.1-1.6 2.4 0.9 0.6 1.4 0 1.6-0.9 6.1 0.1 1 0.6 1.9 0.8 1.6 0.6 1.6 0 2.2-0.5 1.9-2.2 5.7 2.8-1 1.3-0.9 0.4 0.3 0.2 2.8z m-91.7 3.9l0.6 0.5 0.7 1.1-1.4 0.4-6.1-1.7-3.4 1.1-1.9-0.2-2.1-1.2-1.2-2.4 1-2.5 1.8-2.4 1.2-2.3 1.2-1.6 2.2-0.6 0.7 1.9-1 2.6-0.4 1.8 0.1 1.6 0.7 0.5 0.8-1.8 1.6-2.6 1.3-0.2 0.4 1.2 0.7 0.6 0.7 0.4 0.3 2 0.7 2.7 0.8 1.1z m104.4-29.2l-0.6 3.4-0.9 1.2-0.7 0.3-0.3-0.7-0.6-2.9-1.1-1.1-0.3-0.9 0.1-1.1-0.4-1.4-0.8-1.3 0.4-1.2 1.5-0.8 1.5-0.2 1.4 0.4 0.9 2.1-0.1 4.2z m-74.3 63.1l0.4 0.4-0.2 0.9-1.3 1.6-0.6 0.4-0.9 0.1-1.3-0.3-1 0.2-1.5 0.7-0.7 0.7-0.8 0.1-0.1-0.6 0.4-1-0.1-0.9-0.6-0.6-0.5-0.1-0.6-0.4 0.1-0.9 0.3-0.7 0.1-0.9 0.5-0.5 0.9-0.3 4.3 2.3 0 1 0.7 0.1 2.5-1.3z m12.4-29.7l1.3-0.6 2.1-0.5 2.3-0.1 1.4 1.3 0.3 2.1-0.7 1.3 0.5 0.8-0.6 1-1.4-0.6-0.5 0.4 0 0.4 1.1 0.2 1.2 0.9-0.6 1-1.4 1.7-2.2 0.1-1-1.3-0.5-1.3-1.2 0 0.3-1.1-0.4-1.1-1.7-0.2-0.6-0.5 1.3-1.1 0.2-1.2-1.3-1.1-2.5-0.8-1.5 0.5-0.9-0.1-0.3-1.1 1.1-1.2 1.6-0.4 2.1 0.9 1.6 1.2 0.9 0.5z m-19.8-2.7l2 2.3 0.8 1.3-0.6 0.9-1.4 0-0.7 0.3 0.1 1.2-0.4 0.5-1.3-0.4-0.8-0.4-1.5-1-0.8-1.3 0.1-0.9 1-1.5 1.8-1.4 1.7 0.4z"></path>
        <path id="busan" name="부산" d="M662.1 637.3l1.1-2 2.1-2.6 1.9-2.9 1.4-9.8 2-2.4 2.5-1.9 3.2-1.3 3.5 0.1 2.6 1.7 0.8 3.7 2.4 3.3 3.1 2.6 2.5 3.1 2.7 2.8 0.3 0.6-0.7 1.4-2.1-0.1-1.5 0-2 0.3-1.4-0.1-1.4 0.6-1.7 0.2-0.1 2.4 1.1 1.6 0.2 1.9-0.7 2.2-3.1 1.4-2.4-2.1-1.5-1.2-1.1-1.4-3.6 3.8-1.6 3.1-0.5 3.2-1.1 0.8-0.6-1.7-1.7-1.7 0.2 1.5 0.3 3.4-1 0-0.5-1.1-0.6-0.3-1.4 1-1.3 0.8-0.9-1.1-1.1-3.8 0.5-3.3 1-4.3 0.2-2.4z"></path>
        <path id="ulsan" name="울산" d="M703.6 607.1l-0.6-0.5-3.8-1.4-3-2.9-0.9-4.6-3.1-2.4-7-3.9-5.8-6.7-3.5-2.7-8.4-1.3-2-4.1 3.4-6.8-0.6-6.6 3.3-2.7 3.4-2 2.1-0.1 0.9-1.6-1.3-2.2-0.8-2.3 4.6-3.5 5.7-2 4.7-0.8 4.6 1 4.8 2.1 1.3 2 0 2.5 0.4 2.2 1.6 1.2 2.3 0.6 12.6-2.2 10.8 2.6 0.1 0 0.2 0.2 0.9 1.6-0.5 3.6-0.3 4.3-0.9 6.5-1.4 2.7-2.2 3.1-2.1 1.1-0.9-3-0.8-3.8-1.7-2.9-1.9-0.4-1.1 3.2 1.8 0.4 1.1 1.4 0.6 2.1 0.1 2.4-0.6 2.2-1.4 0.5-1.6 0.2-1.1 1 0.2 1.2 0.2 3.1 0.6 3.2-1.3 2.1-1.1 2 1.1 1.6 0.9 0.9-0.2 2.3-2.8 0.9-2.6 1.6-3.8 3.7-3.2-0.1 0 0.2z"></path>
        <path id="gyeongbuk" name="경북" d="M619.7 320.4l3.5 1.9 3.4 1.4 4 0.9 3.5 0.3 0.8-3.6 0.4-3.9-0.9-4.2 2.5-3 3.7-1.8 3.7 0.3 1.9 3.4 2.6 0.6 2.3 1.2-0.3 2.9 0.3 3 4.1-1.6 3.8-3 1.7 0.7 1.1 1.5 1.5 0.2 1.8-0.7 5.3 0.9 5 2.3 3.6-0.9 3.6-2 4.7 1.1 4.2 2.6 1.3 3.9-3.2 2.4-3.9-1.6-2.6 1-2.3 1.7-1 4.2 0.6 5.5 2.8 4.2 4.5 2.2 1 3.6 1.3 3.1 3.1 1.3 2.9 1.7 9.9 0.7-0.5 3.9 1.1 1.1 1.1 1.2-1.4 4.3-1.9 4.5 0.4 4.7 1.2 4.2 0.4 3.8-1.5 4 9.4 3.5 4.4-2 4.5 1.1 1.3 0 0.1 0.3 0.7 6.7 1.8 6.9 0.8 7-0.9 14.3-0.8 3.1-4.2 5.1-1.6 2.9-0.7 3.3-0.6 20.3 0.4 2.8 0.9 1.5 0.9 0.6 0.7 0.9 0.8 5.7 1 4.3 1.1 0.8 0.7 1-0.5 2.6-1.1 1.5-1.4 0.6-1.3 0.5-2.3 1.8-0.1 2.3 2.8 2.7 2.1 2.3 2.2 2.6 2.7 0.5 3.5-2.7 8.6-9.5 1.7-2.7 2.2 1.7 0.5 2.9 1 3 0.7 3.4-2.2 3.3-4.8 9.7-0.4 4.4-1.5 11.4-3.5 10 0.2 6.2-3.6 10.8-2.6 5.2-1.2 2.6 1.1 3 1.1 1.3-0.1 0-10.8-2.6-12.6 2.2-2.3-0.6-1.6-1.2-0.4-2.2 0-2.5-1.3-2-4.8-2.1-4.6-1-4.7 0.8-5.7 2-4.6 3.5 0.8 2.3 1.3 2.2-0.9 1.6-2.1 0.1-3.4 2-3.3 2.7-3.8 1.2-4-1.8-5.2-1.3-4.9 2-1.6 2-1.8 1.6-2 0.3-1.9 0.7-4.5 3.5-5-0.2-4.2-2.2-4.5-1.3-5 0.9-5 0.5-4.2-2.7-3.4-4.2-1.1-9.2-3.2 2.4-3.3 4.8-3.7-0.7-7.3 3.7-3.8-0.8-3.5-2.6-3.7-1.7-3.9-0.7-4.1 0.6-8.4-0.4-2.1-7.7 1.6-3.7 0.1-4-1.8-2.1-2.1-1.3-0.4-1.4-0.8-1.6-3-2.1-1.8-3.5-2.6-2.8-3.5-1.2-3.8 0.1-3.9-0.3-2.2-1.5-1.8-1.5-4.1-0.3-1.1-0.4-1.1-0.5-0.5-1.3-0.2-1.4-1.2-1-1.3-1-2.7-1.6-1.1-3.7 0.6-10.7-5.5-9.4 3.3-1.7 3.4-1.1 2.1-4.1 1.1-4.3 1.1-1.9 1.3-1.6 0.3-2.7-0.1-2.3-0.7-4.5 3.3-2.9 3.2 0.6 2.9 0.2-1.6-8.7-3-2.3-6.9 1.7-2.7-1.3-3.8-3.2-3.3-1.1-5.4 1.3-0.9-8 3-2.6 2-3.8-1.5-2.7-0.9-2.9 0.8-4.1 0.6-9.1 1.3-3.9 2.5-2.4-6.6-9.7-5.3-0.9-1.6-3.8 2-0.9 2-0.4 2-2.1 3-4.1 0.8-1.7-0.1-1.6 0.4-2 4.2-2.9 4.7-2.2 3-4.4 5.1 2.2 9.6 1.5-1.9-3.8-2.6-3.3 0.9-3.5 1.7-3.7 1.6-2.8 2.2 1.5 2.7-0.3 2.2-3 2.3-1.4 2.2 1.4 4.2 1.4 3.9 0.3 1-2.7 0.6-2.7 1.5-2.2 1.7-1.8 1.8 2 2.2 1.6 3.2 2.8 2.1 4.1 4.8 1.6 11.3-4.8 2-6.6-1.8-1.7-0.9-1.7 1.7-3.1 1.4-3.2 3-4.3 4.2-3 1.2-2.1 1.7-1.4 2.8-0.9 2.2-2.2 3.5-2.9 3.1-3.3 1.3-0.8 1.6 0.6 1.9-1.1 1.6-1.9z m12.4 197.8l2.1-2.2 0.7-2.6-0.1-2.9-0.2-2.6-1.5-1.3-1.1-1.6 0-4.2 0.6-1.2 0.1-1.3-1.7-3-5.5-4-7.1 0.5-8.6 1.2-6.4 5.3 0.8 7.6-2.3 2.5-1.5 3.3 1.3 0.2 1.2 0.5-0.2 1.7-0.6 1.5-2.2 0.4-2 0-1.9 2.6 0.8 3.1 2.1 0.8 2 2 1.6 3.1 2.4 1.9 1.7 1.1 1.2 1.1 1.1-0.9 1.9-3.4 1.9-1.5 4.4 0.4 7.8 2 3.1-1.8 0.4-1.6 0-1 1.3-3.4 0.1-1.4 0-1.1 1.3-0.1 1 0.3z m293.1-287l2.3 1.8-0.1 4.3-1.5 4.9-1.6 3.2-2.6 1.3-3.4-0.7-3.4-2-2.2-2.7-0.7-3.5 1.1-2.6 2.5-1.6 4.8-0.8 3.2-1.2 1.6-0.4z"></path>
        <path id="jeju" name="제주" d="M388.7 909l1 2.1-0.6 0.8-1.3 0.4-1 1.1 0.1 0.9 0.9 1.5 0 0.9-0.5 0.9-1.2 1.5-0.2 0.5-2.4 2.8-4.7 3.7-1.4 3.1-2 3.5-0.1 1.5-0.9 2.1-3.4 0.4-1.3 0.7-3.5-0.4-5.2 4.2-13.7 2.5-4.6 3.9-5.6 1.2-6-0.6-6.9 1.3-5.7-1.7-12.9 0.2-4 1.8-2.4 4.3-2.2 0.4-2.2-1-3-5-4.2-1.4-3.9-4.2-1.4-5.1 2.4-6.6 2.3-4.1 1.4-1.4 4.7-2.8 4-7 3.7-1 1.7-3.7 6.4-2.2 13.8-3.9 3.5-3 13.2-1.4 9-3.9 2.1 0.6 11-1.8 6.3-0.5 4.2 0.7 1.7 2.4 2 1.6 6.5 2.6 2 2 1.3 4.9 1.3 1.9 0.7-0.8 0.8-0.7 0.4-0.7z"></path>
        <path id="seoul" name="서울" d="M411.7 230.4l3.7 0 3.2-1.2 2.8 0 1 2.5-0.4 2.5-1.9 1-2 1.4 0 3 1.1 1.3-2.3 3.1-1.3 2.3-3.5 2.1-3.9 0.9-4 2-1.5-3.6-3.4 0.8-3.4 1-2.4 1.4-2.4 0.4-5.8-0.2-4-5.2-4-1.2-2.7-1.8-0.7-4.9-2.7-3.8-3.2-4 2.1-4.3 3.8 0.2 4.3 2.7 3.2-1.1 2.9-1.8 0.2-2.9 0.8-2.7 6.1-0.6 3.1-4 1.9-4.1 2.7-2.9 4.3-1 4.8 0.4 2.4 4 0.9 5.5 1.4 3.8 0.1 4.2-1.3 4.8z"></path>
        <path id="daejeon" name="대전" d="M461.4 430l-0.7 3.9-1.8 2.9-1.9 7.3-3.6 2.8-1.9 0.7-5.9 4.4-6.7 1.7-2.8-9.1-0.7-12.2-2.5-4.8-7.2-11.4 6.2-1.7 8.8-2.4 3.1 0.3-0.3 1.2 0.5 1.3 0.9 1 1.2 0.6 0.8 1.9-0.5 2.9 4.1 1.2 4.3-1 1.6-2.3 1.9 0.5-0.2 1.9 1.6 0.9 0.3 3 1.4 4.5z"></path>
        <path id="sejong" name="세종" d="M425.7 416.2l-9.3 2.5-12.3-2.4 1.2-3.5 2.1-2-0.4-25.6 3.1-8.7 19.3 7.7-2.6 5.7 0.2 2.9-1.7 4.8-0.6 5.2 10-2 10.3 0.7-0.1 1.8-0.7 1.6-0.3 1.3 0.5 1 0.1 0.9 0.1 0.9-0.2 1.7-0.6 1.7-3.1-0.3-8.8 2.4-6.2 1.7z"></path>
        <path id="chungbuk" name="충북" d="M478.3 301.9l14.3-3.9 14.4-2-1.1 8.2 4.1-1 4.1 0.3 1.2 0.7 1.1 0.6 1.1-0.9 0.9-1.1 2.8-1.9-0.8-8.3 2.6-3.1 6.9-2.4 5.1 5.5 0 3.6 1.7 2.4 4.5-1.1 4.5-2.5 2.7-2.1 3.3 0.7 2.6-1.4 3.2-2.4 7.5 2.7 7.8 1.2 2.4 0.7-1.6 3.6-3.9 2.8-2.3 3.6 1.5 1.7 1.9 1 1.2 0.1 1.3-0.6 4.1-1.4 6.4-0.7 1.4 1.4-0.3 2.5 2.7 2.8 1 2.2 2.5-0.2 2.9-0.5 3.3-1 3.2-0.1 3.2 2.5 3.6 2.3 3.5 0.7 3.5 0.4 2.7 1.2 2.7 1.7-1.6 1.9-1.9 1.1-1.6-0.6-1.3 0.8-3.1 3.3-3.5 2.9-2.2 2.2-2.8 0.9-1.7 1.4-1.2 2.1-4.2 3-3 4.3-1.4 3.2-1.7 3.1 0.9 1.7 1.8 1.7-2 6.6-11.3 4.8-4.8-1.6-2.1-4.1-3.2-2.8-2.2-1.6-1.8-2-1.7 1.8-1.5 2.2-0.6 2.7-1 2.7-3.9-0.3-4.2-1.4-2.2-1.4-2.3 1.4-2.2 3-2.7 0.3-2.2-1.5-1.6 2.8-1.7 3.7-0.9 3.5 2.6 3.3 1.9 3.8-9.6-1.5-5.1-2.2-3 4.4-4.7 2.2-4.2 2.9-0.4 2 0.1 1.6-0.8 1.7-3 4.1-2 2.1-2 0.4-2 0.9 1.6 3.8 5.3 0.9 6.6 9.7-2.5 2.4-1.3 3.9-0.6 9.1-0.8 4.1 0.9 2.9 1.5 2.7-2 3.8-3 2.6 0.9 8 5.4-1.3 3.3 1.1 3.8 3.2 2.7 1.3 6.9-1.7 3 2.3 1.6 8.7-2.9-0.2-3.2-0.6-3.3 2.9 0.7 4.5 0.1 2.3-0.3 2.7-1.3 1.6-1.1 1.9-1.1 4.3-2.1 4.1-3.4 1.1-3.3 1.7-1.8 1.8-1.7 1.6-2-1.1-2-1.9-5 2.3-4.3 2.6-2.2-0.6-1.3-1.6-6-2-2.1-2.4-2.3-1.3-0.8 1.2-1.1 0.2-1.3-1.2-1.2-1.4-3.1-4.8-2.7-4.9-1.2-5.7 0.2-5.8-1.4-5-4.2-2.6-4-1.3-4.4 0.9-0.3-4.8 0.2-4.6 1.6-6.5 3.1-5.5 1.2-2.9 1.4-2.5 2.2-1.6 0.6-3-1.8-0.5-1.9-0.9-2.2 1.7-1.8 2.4-1.4-4.5-0.3-3-1.6-0.9 0.2-1.9-1.9-0.5-1.6 2.3-4.3 1-4.1-1.2 0.5-2.9-0.8-1.9-1.2-0.6-0.9-1-0.5-1.3 0.3-1.2 0.6-1.7 0.2-1.7-0.1-0.9-0.1-0.9-0.5-1 0.3-1.3 0.7-1.6 0.1-1.8-10.3-0.7-10 2 0.6-5.2 1.7-4.8-0.2-2.9 2.6-5.7 3.8-5.5 2.8-4.9 1.2-1.3 1.3 0.2 1.2-0.3 0.7-1.3 0.2-1.5 0.4-1.8 0.7-1.8 0.3-1.9-0.3-1.9-0.9-1.7-1.1-1.1 0.1-3.4-1.8-1.3-2.3-4.7-1.8-1-1.6-1.7-1.1-2.5 6.1-1.8 5.8-2.8 4.5-1.5 1.2-5 2.2-2.4 3.5-1.5 1.6-2.1 1.2-2.9 2.1-2.2 2.6 0.6 0.8 1 3.4-2.4 6.5-12.1 0.6-1.4 0.8-1.3 1.1-0.9 1-0.7 1.1-1.7 1-1.8z"></path>
        <path id="gwangju" name="광주" d="M394 619.8l2.8 7.6-5.4 7.2-8.3-1.4-7.4-4.4-3.7-8.2 2.9-2.7 4.9 1.2 3.5-0.8 3.7-1.1 7 2.6z"></path>
        <path id="daegu" name="대구" d="M632.1 518.2l-1-0.3-1.3 0.1 0 1.1-0.1 1.4-1.3 3.4 0 1-0.4 1.6-3.1 1.8-7.8-2-4.4-0.4-1.9 1.5-1.9 3.4-1.1 0.9-1.2-1.1-1.7-1.1-2.4-1.9-1.6-3.1-2-2-2.1-0.8-0.8-3.1 1.9-2.6 2 0 2.2-0.4 0.6-1.5 0.2-1.7-1.2-0.5-1.3-0.2 1.5-3.3 2.3-2.5-0.8-7.6 6.4-5.3 8.6-1.2 7.1-0.5 5.5 4 1.7 3-0.1 1.3-0.6 1.2 0 4.2 1.1 1.6 1.5 1.3 0.2 2.6 0.1 2.9-0.7 2.6-2.1 2.2z"></path>
      </g>
    </svg>